<svg width="128" height="128" viewBox="0 0 128 128" fill="none" xmlns="http://www.w3.org/2000/svg">
<path d="M46.1811 39.76H24.2931L23.3331 47.152C24.3891 48.592 26.5011 49.84 28.8051 50.704V95.056C26.5971 95.92 24.6771 97.168 23.5251 98.608L24.4851 106H43.3011L44.2611 98.608C43.1091 97.168 41.1891 95.92 38.9811 95.056V69.808C38.9811 64.144 38.1171 55.6 38.1171 55.6L39.0771 55.504C39.0771 55.504 40.9971 63.76 42.9171 68.464L56.3571 106H69.1251L81.8931 68.464C83.5251 63.664 85.7331 55.504 85.7331 55.504L86.6931 55.6C86.6931 55.6 85.8291 64.144 85.8291 69.808V94.768C83.6211 95.632 81.7011 96.688 80.5491 98.128L81.5091 106H103.397L104.357 98.032C103.205 96.592 101.285 95.536 99.0771 94.672V50.704C101.381 49.84 103.493 48.592 104.549 47.152L103.589 39.76H82.0851L68.7411 78.448C65.6691 85.84 65.2851 91.696 65.2851 91.696H63.9411C63.9411 91.696 63.3651 86.032 60.1971 78.448L46.1811 39.76Z" fill="#0058DB"/>
<path d="M64 14L67.1432 23.6738H77.3148L69.0858 29.6525L72.229 39.3262L64 33.3475L55.771 39.3262L58.9142 29.6525L50.6852 23.6738H60.8568L64 14Z" fill="#E2C110"/>
</svg>
